<svg xmlns="http://www.w3.org/2000/svg" width="270.341" height="564.179" viewBox="0 0 270.341 564.179">
  <g id="IconBg" transform="translate(0 441.179)">
    <g id="Ellipse_1" data-name="Ellipse 1" transform="translate(36.053) rotate(31)" fill="#2e435b" stroke="#707070" stroke-width="1">
      <ellipse cx="51.5" cy="35" rx="51.5" ry="35" stroke="none"/>
      <ellipse cx="51.5" cy="35" rx="51" ry="34.5" fill="none"/>
    </g>
    <ellipse id="Ellipse_2" data-name="Ellipse 2" cx="51.5" cy="35" rx="51.5" ry="35" transform="translate(36.053) rotate(31)" fill="#2e435b"/>
  </g>
  <g id="IconBg-2" data-name="IconBg" transform="translate(0 309.179)">
    <g id="Ellipse_1-2" data-name="Ellipse 1" transform="translate(36.053) rotate(31)" fill="#2e435b" stroke="#707070" stroke-width="1">
      <ellipse cx="51.5" cy="35" rx="51.5" ry="35" stroke="none"/>
      <ellipse cx="51.5" cy="35" rx="51" ry="34.5" fill="none"/>
    </g>
    <ellipse id="Ellipse_2-2" data-name="Ellipse 2" cx="51.5" cy="35" rx="51.5" ry="35" transform="translate(36.053) rotate(31)" fill="#2e435b"/>
  </g>
  <g id="IconBg-3" data-name="IconBg" transform="translate(145.605 176.179)">
    <g id="Ellipse_1-3" data-name="Ellipse 1" transform="translate(36.053) rotate(31)" fill="#2e435b" stroke="#707070" stroke-width="1">
      <ellipse cx="51.5" cy="35" rx="51.5" ry="35" stroke="none"/>
      <ellipse cx="51.5" cy="35" rx="51" ry="34.5" fill="none"/>
    </g>
    <ellipse id="Ellipse_2-3" data-name="Ellipse 2" cx="51.5" cy="35" rx="51.5" ry="35" transform="translate(36.053) rotate(31)" fill="#2e435b"/>
  </g>
  <g id="IconBg-4" data-name="IconBg" transform="translate(146 309.179)">
    <g id="Ellipse_1-4" data-name="Ellipse 1" transform="translate(36.053) rotate(31)" fill="#2e435b" stroke="#707070" stroke-width="1">
      <ellipse cx="51.5" cy="35" rx="51.5" ry="35" stroke="none"/>
      <ellipse cx="51.5" cy="35" rx="51" ry="34.5" fill="none"/>
    </g>
    <ellipse id="Ellipse_2-4" data-name="Ellipse 2" cx="51.5" cy="35" rx="51.5" ry="35" transform="translate(36.053) rotate(31)" fill="#2e435b"/>
  </g>
  <g id="IconBg-5" data-name="IconBg" transform="translate(145.605 441.179)">
    <g id="Ellipse_1-5" data-name="Ellipse 1" transform="translate(36.053) rotate(31)" fill="#2e435b" stroke="#707070" stroke-width="1">
      <ellipse cx="51.5" cy="35" rx="51.5" ry="35" stroke="none"/>
      <ellipse cx="51.5" cy="35" rx="51" ry="34.5" fill="none"/>
    </g>
    <ellipse id="Ellipse_2-5" data-name="Ellipse 2" cx="51.5" cy="35" rx="51.5" ry="35" transform="translate(36.053) rotate(31)" fill="#2e435b"/>
  </g>
  <g id="IconBg-6" data-name="IconBg" transform="translate(0 176.179)">
    <g id="Ellipse_1-6" data-name="Ellipse 1" transform="translate(36.053) rotate(31)" fill="#2e435b" stroke="#707070" stroke-width="1">
      <ellipse cx="51.5" cy="35" rx="51.5" ry="35" stroke="none"/>
      <ellipse cx="51.5" cy="35" rx="51" ry="34.5" fill="none"/>
    </g>
    <ellipse id="Ellipse_2-6" data-name="Ellipse 2" cx="51.5" cy="35" rx="51.5" ry="35" transform="translate(36.053) rotate(31)" fill="#2e435b"/>
  </g>
  <g id="Logo" transform="translate(74.357 -1.421)">
    <g id="Group_2" data-name="Group 2" transform="translate(26.115 57.348)">
      <g id="Group_1" data-name="Group 1" transform="translate(0 0)">
        <path id="Path_11" data-name="Path 11" d="M481.895,1079.128l.065-.454q1.589-11.544,2.886-25.067l-.178,1.054a103.329,103.329,0,0,0-4.378,23.673q-.016.211-.016.438a62.624,62.624,0,0,0,.211,9.4l-.016.081h.049Q481.23,1083.863,481.895,1079.128Z" transform="translate(-466.767 -1053.607)" fill="#f90"/>
        <path id="Path_12" data-name="Path 12" d="M454.6,1108.435q-.13.065-.243.13a15.544,15.544,0,0,1,8.529-.989q.162.016.989.178v-.422a.18.18,0,0,0-.081-.016,15.875,15.875,0,0,0-9.193,1.119m-3.762,4.6a5.434,5.434,0,0,0-.032.6q0,3.356,3.794,6.259a19.1,19.1,0,0,0,9.193,3.632,15.633,15.633,0,0,0,9.177-1.119q3.81-1.848,3.81-5.2t-3.81-6.259a18.053,18.053,0,0,0-6.437-3.081l-.081.487a16.548,16.548,0,0,1,4.945,2.4q3.535,2.529,3.535,5.448t-3.535,4.54a15.381,15.381,0,0,1-8.512.973,18.354,18.354,0,0,1-8.529-3.162q-3.519-2.529-3.519-5.464Z" transform="translate(-450.806 -1082.67)" fill="#eeab0f"/>
      </g>
    </g>
    <g id="Group_4" data-name="Group 4" transform="translate(37.516 13.86)">
      <g id="Group_3" data-name="Group 3">
        <path id="Path_13" data-name="Path 13" d="M378.953,529.509l-.543-.094a16.857,16.857,0,0,1,.955,3.043q.153.578.271,1.274a48.221,48.221,0,0,1-.436,15.2,46.751,46.751,0,0,1-4.47,14.307q-3.114,5.8-6.039,5.32-.212-.035-.436-.083l-.436-.071q-2.925-.484-3.975-6.971a46.927,46.927,0,0,1,.377-14.991,47.8,47.8,0,0,1,4.529-14.519,9.573,9.573,0,0,1,.672-1.132,16.261,16.261,0,0,1,1.9-2.56l-.554-.083a15.623,15.623,0,0,0-2.383,2.748q-.377.554-.79,1.227a45.538,45.538,0,0,0-5.131,15.428,44.346,44.346,0,0,0-.118,16.1q1.5,7.018,5.036,7.608.189.024.4.059.189.035.4.071,3.55.59,7.242-5.555a44.568,44.568,0,0,0,5.084-15.274,45.66,45.66,0,0,0,.165-16.253q-.177-.767-.377-1.427A14.48,14.48,0,0,0,378.953,529.509Z" transform="translate(-361.666 -528.153)" fill="#f90"/>
      </g>
    </g>
    <g id="Group_6" data-name="Group 6" transform="translate(55.495 44.763)">
      <g id="Group_5" data-name="Group 5">
        <path id="Path_14" data-name="Path 14" d="M524.108,1137.837l-.032-.081a16.14,16.14,0,0,0-2.319.7,18.2,18.2,0,0,1,2.351-.616m17.219,5.74q-.859-3.243-5.3-5.075a18.062,18.062,0,0,0-7.572-1.281q-1.621.1-2.092.146v.178q.454-.049,1.119-.1a17.079,17.079,0,0,1,6.956,1.038q4.086,1.524,4.832,4.345.762,2.838-2.238,5.3a15.931,15.931,0,0,1-7.977,3.064,18.491,18.491,0,0,1-9.047-.859q-4.054-1.459-4.8-4.281-.049-.179-.081-.357a4.8,4.8,0,0,0,.178,1.151q.876,3.162,5.286,4.978a19.174,19.174,0,0,0,9.826,1.135,15.638,15.638,0,0,0,8.577-3.47Q542.2,1146.82,541.327,1143.577Z" transform="translate(-515.125 -1109.251)" fill="#eeab0f"/>
        <path id="Path_15" data-name="Path 15" d="M528.757,1077.059l-.178-1.054q1.492,15.5,3.373,28.391a.307.307,0,0,0,.016.1q.454,3.162.94,6.161h.049l-.032-.081a58.519,58.519,0,0,0,.292-6.243v-.146A98.39,98.39,0,0,0,528.757,1077.059Z" transform="translate(-522.433 -1076.005)" fill="#f90"/>
      </g>
    </g>
    <g id="Group_8" data-name="Group 8" transform="translate(48.327 1.421)">
      <g id="Group_7" data-name="Group 7" transform="translate(0)">
        <path id="Path_16" data-name="Path 16" d="M390.7,557.495l-.543.094a14.823,14.823,0,0,0-1.356,3.373q-.189.649-.366,1.415a45.726,45.726,0,0,0,.165,16.265,44.685,44.685,0,0,0,5.084,15.274q3.692,6.157,7.242,5.567.212-.035.4-.071.212-.035.4-.071,3.538-.59,5.036-7.6a44.348,44.348,0,0,0-.118-16.1,45.55,45.55,0,0,0-5.131-15.439q-.413-.672-.814-1.227a14.542,14.542,0,0,0-2.371-2.76l-.543.094a16.776,16.776,0,0,1,1.887,2.56,10.048,10.048,0,0,1,.672,1.12,47.812,47.812,0,0,1,4.529,14.531,46.658,46.658,0,0,1,.389,14.979q-1.05,6.5-3.975,6.983l-.436.071-.448.071q-2.913.484-6.027-5.308a46.948,46.948,0,0,1-4.482-14.3,48.3,48.3,0,0,1-.436-15.215q.118-.684.271-1.286A15.865,15.865,0,0,1,390.7,557.495Z" transform="translate(-387.782 -556.221)" fill="#f90"/>
      </g>
    </g>
    <g id="Group_10" data-name="Group 10" transform="translate(1.4 110.218)">
      <g id="Group_9" data-name="Group 9" transform="translate(0)">
        <path id="Path_17" data-name="Path 17" d="M882.147,250.95H877.1v22.382h5.047V250.95m9.2,0H886.3v22.382h13.338v-4.088h-8.291Z" transform="translate(-782.157 -250.95)" fill="#eeab0f"/>
        <path id="Path_18" data-name="Path 18" d="M744.3,255.061h6.349v18.271h5.07V255.061h6.372V250.95H744.3v4.111m-70,4.979v-4.979h7.857V250.95h-12.9v22.382h13.429v-4.088H674.3v-5.116h7.331V260.04H674.3m52.439-2.626q.32.617,1.119,1.85l9.227,14.069h5.093V250.95H737.4v12.379a21.617,21.617,0,0,0,.137,3.06h-.069q-.5-.891-1.119-1.8l-8.885-13.635h-5.436v22.382H726.8v-12.31a34.5,34.5,0,0,0-.137-3.609h.068m-22.588-6.464h-5.276l-4.636,15.508a13.592,13.592,0,0,0-.48,2.307h-.091a10.079,10.079,0,0,0-.457-2.238l-4.659-15.576h-5.436l7.605,22.382h5.733l7.7-22.382m6.829,9.09v-4.979h7.857V250.95h-12.9v22.382h13.429v-4.088h-8.382v-5.116h7.331V260.04Z" transform="translate(-669.25 -250.95)" fill="#f90"/>
      </g>
    </g>
  </g>
  <g id="Wedding" transform="translate(163.922 204.469)">
    <g id="Group_12" data-name="Group 12" transform="translate(29.206 9.283)">
      <g id="Group_11" data-name="Group 11">
        <path id="Path_19" data-name="Path 19" d="M522.137,315.942l-.8-.426q-1.344-.692-2.688-1.278a36.879,36.879,0,0,0-16.555-3.167q-10.247.413-14.945,6.361-4.671,5.922-1.065,13.907,3.62,7.945,13.414,13.281a38.123,38.123,0,0,0,20.041,4.9q10.247-.439,14.945-6.388,4.671-5.935,1.065-13.893t-13.414-13.294m-2.661,1.211q.958.519,1.863,1.065,7.812,4.671,11.059,11.152,3.673,7.213-.453,12.443t-13.627,5.416A37.727,37.727,0,0,1,499.54,342.4q-9.289-4.977-12.922-12.19t.479-12.456q4.112-5.217,13.614-5.4a37.4,37.4,0,0,1,17.939,4.378Q519.063,316.927,519.476,317.153Z" transform="translate(-484.515 -311.036)" fill="#eeab0f"/>
      </g>
    </g>
    <g id="Group_15" data-name="Group 15" transform="translate(52.551 40.755) rotate(-177.513)">
      <g id="Group_14" data-name="Group 14">
        <g id="Group_13" data-name="Group 13">
          <path id="Path_20" data-name="Path 20" d="M49.965,6.418q4.67,5.934,1.064,13.891T37.617,33.6l-.8.426q-1.344.692-2.688,1.277a36.874,36.874,0,0,1-16.553,3.167Q7.333,38.06,2.636,32.112q-4.67-5.921-1.064-13.9Q5.19,10.264,14.984,4.928A38.118,38.118,0,0,1,35.022.032Q45.268.471,49.965,6.418M47.876,20.177q3.672-7.212-.452-12.441T33.8,2.32A37.722,37.722,0,0,0,15.023,7.15Q5.736,12.127,2.1,19.339t.479,12.454q4.112,5.216,13.612,5.4a37.392,37.392,0,0,0,17.937-4.378q.412-.2.825-.426.958-.519,1.863-1.064Q44.629,26.657,47.876,20.177Z" fill="#f90"/>
        </g>
      </g>
    </g>
  </g>
  <g id="Brit" transform="translate(29.512 317.934)">
    <g id="Group_17" data-name="Group 17" transform="translate(9.689 16.795)">
      <g id="Group_16" data-name="Group 16">
        <path id="Path_21" data-name="Path 21" d="M174.694,658.244q.04-.652.12-1.317A18.391,18.391,0,0,0,169.757,658a10.778,10.778,0,0,0-1.011.452,10.107,10.107,0,0,0-2.768,1.85,11.166,11.166,0,0,0-2.089-2.648,8.91,8.91,0,0,0-.825-.772,19.7,19.7,0,0,0-4.378-2.648q-.16.679-.333,1.318a18.875,18.875,0,0,1,4.7,2.475,7.38,7.38,0,0,1,.772.639,10.263,10.263,0,0,1,2.009,2.236,8.778,8.778,0,0,1,2.542-1.49,7.592,7.592,0,0,1,.932-.333,18.9,18.9,0,0,1,5.39-.838m16.914,3.393a19,19,0,0,0-4.1-2.515q-.213.892-.452,1.757a17.136,17.136,0,0,1,2.662,1.584q3.912,2.9,3.407,5.935a2.78,2.78,0,0,1-.093.439q-.027.253-.053.479-.506,3.021-5.15,4.485a22.217,22.217,0,0,1-10.486.452,22.951,22.951,0,0,1-9.928-3.846,7.03,7.03,0,0,1-.772-.639,8.238,8.238,0,0,1-1.9-2.222,10.556,10.556,0,0,1-2.648,1.464,6.586,6.586,0,0,1-.932.359,23.03,23.03,0,0,1-10.62.426,22.434,22.434,0,0,1-9.794-3.833q-3.912-2.9-3.407-5.909a2.087,2.087,0,0,1,.106-.466q.013-.24.04-.466.506-3.021,5.15-4.5a17.889,17.889,0,0,1,3.167-.665q.053-.865.146-1.77a19.808,19.808,0,0,0-4.724,1.051q-5,1.93-5.616,5.629-.027.2-.04.413a2.485,2.485,0,0,0-.093.413q-.625,3.686,3.487,7.12a21.688,21.688,0,0,0,10.433,4.418,22.042,22.042,0,0,0,11.4-.785q.572-.213,1.038-.439a11.572,11.572,0,0,0,2.635-1.677l.027-.027a.041.041,0,0,0-.013.027q.093-.093.186-.173a9.8,9.8,0,0,0,2.023,2.648q.359.373.8.759A22.049,22.049,0,0,0,178.048,676a21.679,21.679,0,0,0,11.285-.8q5-1.916,5.629-5.589.027-.213.067-.426t.067-.413Q195.707,665.071,191.608,661.637Z" transform="translate(-135.394 -652.189)" fill="#eeab0f"/>
      </g>
    </g>
    <g id="Group_19" data-name="Group 19" transform="translate(0 55.373)">
      <g id="Group_18" data-name="Group 18">
        <path id="Path_22" data-name="Path 22" d="M163.769,771.07q4.351-1.53,5.3-4.537-.9,2.342-5.136,3.42A25.481,25.481,0,0,1,152.7,769.9a27.468,27.468,0,0,1-10.725-4.325,6.719,6.719,0,0,1-.825-.665,9.792,9.792,0,0,1-2.129-2.342,10.549,10.549,0,0,1-2.781,1.357,6.371,6.371,0,0,1-1,.293,26.209,26.209,0,0,1-11.324-.08,27.033,27.033,0,0,1-10.592-4.3q-3.273-2.4-3.779-4.737.306,2.967,3.659,5.841a22.927,22.927,0,0,0,10.525,4.777,21.778,21.778,0,0,0,11.377-.386,7.457,7.457,0,0,0,1.025-.413,10.724,10.724,0,0,0,2.808-1.743,10.859,10.859,0,0,0,2.076,2.715,10.155,10.155,0,0,0,.825.785,23.2,23.2,0,0,0,10.632,4.8A21.669,21.669,0,0,0,163.769,771.07Z" transform="translate(-109.545 -755.103)" fill="#eeab0f"/>
      </g>
    </g>
    <g id="Group_21" data-name="Group 21" transform="translate(5.242 64.407)">
      <g id="Group_20" data-name="Group 20">
        <path id="Path_23" data-name="Path 23" d="M140.779,789.234q-.506-.053-1.011-.12a31.242,31.242,0,0,1-3.259,5.92q-2.634,3.685-4.43,3.379-.133-.013-.266-.04l-.279-.053q-1.8-.306-1.743-4.43a28.732,28.732,0,0,1,1.264-7.344q-.466-.226-.9-.479a28.089,28.089,0,0,0-1.557,9.246q.16,4.457,2.355,4.829.106.013.253.04.106.013.239.04,2.2.373,5.215-3.525a32.053,32.053,0,0,0,4.124-7.463m-39.445-2.581a26.724,26.724,0,0,1,.878-5.947q-.479-.239-.931-.506a26.217,26.217,0,0,0-1.144,7.876q.16,4.457,2.355,4.829.106.013.253.04.106.013.239.04,2.2.372,5.215-3.525a30.843,30.843,0,0,0,3.512-6.013l-1.051-.133a30.251,30.251,0,0,1-2.607,4.483q-2.634,3.685-4.43,3.379-.133-.013-.266-.04l-.279-.053Q101.282,790.777,101.335,786.653Z" transform="translate(-100.129 -780.201)" fill="#f90"/>
      </g>
    </g>
    <g id="Group_23" data-name="Group 23" transform="translate(19.895 0)">
      <g id="Group_22" data-name="Group 22">
        <path id="Path_24" data-name="Path 24" d="M165.441,570.326q-.16-4.457-2.355-4.83-.106-.013-.253-.04-.106-.013-.24-.04-2.2-.373-5.216,3.526a34.106,34.106,0,0,0-4.95,9.7,30.4,30.4,0,0,0-1.9,10.338q.013.492.053.891a8.609,8.609,0,0,0,.492,2.156l.333.066a9.164,9.164,0,0,1-.266-1.943,4.645,4.645,0,0,1-.04-.812,32.519,32.519,0,0,1,1.969-9.66,35.17,35.17,0,0,1,4.457-9.074q2.634-3.686,4.431-3.38.133.013.266.04l.279.053q1.8.306,1.743,4.431a31.95,31.95,0,0,1-1.943,9.513,36.7,36.7,0,0,1-4.484,9.234q-.279.4-.546.718a15.679,15.679,0,0,1-1.49,1.623l.319.067a12.484,12.484,0,0,0,1.836-1.77l.652-.772a34.613,34.613,0,0,0,4.976-9.806A29.4,29.4,0,0,0,165.441,570.326Z" transform="translate(-150.52 -565.384)" fill="#f90"/>
      </g>
    </g>
    <g id="Group_25" data-name="Group 25" transform="translate(48.369 7.33)">
      <g id="Group_24" data-name="Group 24">
        <path id="Path_25" data-name="Path 25" d="M237.692,596.16q-.106-.013-.24-.04-2.2-.372-5.216,3.526a34.106,34.106,0,0,0-4.95,9.7,30.394,30.394,0,0,0-1.9,10.338q.013.492.053.891a8.607,8.607,0,0,0,.492,2.155l.333.067a9.163,9.163,0,0,1-.266-1.943,4.644,4.644,0,0,1-.04-.812,32.519,32.519,0,0,1,1.969-9.66,35.171,35.171,0,0,1,4.457-9.074q2.635-3.686,4.431-3.38.133.013.266.04l.279.053q1.8.306,1.743,4.431a31.951,31.951,0,0,1-1.943,9.513,36.7,36.7,0,0,1-4.484,9.234q-.279.4-.546.719a15.68,15.68,0,0,1-1.49,1.623l.319.067a12.489,12.489,0,0,0,1.836-1.77l.652-.772a34.615,34.615,0,0,0,4.976-9.806A29.4,29.4,0,0,0,240.3,601.03q-.16-4.457-2.355-4.83Q237.838,596.186,237.692,596.16Z" transform="translate(-225.379 -596.087)" fill="#f90"/>
      </g>
    </g>
    <g id="Group_27" data-name="Group 27" transform="translate(0.319 22.693)">
      <g id="Group_26" data-name="Group 26">
        <path id="Path_26" data-name="Path 26" d="M119.845,667.921q-9.421,19.214-9.448,32.361l9.448-32.361m29.274,9.74-.16.546q-3.5,8.21-9.354,29.46,5.589-10.871,9.514-29.993v-.013M169.584,711.7q7.731-10.073,10.179-32.188Z" transform="translate(-110.397 -667.921)" fill="#eeab0f"/>
      </g>
    </g>
  </g>
  <g id="Other" transform="translate(179.154 453.075)">
    <g id="Group_56" data-name="Group 56" transform="translate(0 45.845)">
      <g id="Group_55" data-name="Group 55">
        <path id="Path_40" data-name="Path 40" d="M481.6,1074.581l.053-.373q1.3-9.474,2.369-20.572l-.146.865a84.8,84.8,0,0,0-3.593,19.427q-.013.173-.013.359a51.384,51.384,0,0,0,.173,7.718l-.013.066h.04Q481.057,1078.466,481.6,1074.581Z" transform="translate(-469.187 -1053.637)" fill="#f90"/>
        <path id="Path_41" data-name="Path 41" d="M453.932,1108.229q-.106.053-.2.106a12.758,12.758,0,0,1,7-.812q.133.013.812.146v-.346a.148.148,0,0,0-.067-.013,13.028,13.028,0,0,0-7.545.918m-3.087,3.779a4.45,4.45,0,0,0-.027.492q0,2.754,3.114,5.136a15.679,15.679,0,0,0,7.545,2.981,12.829,12.829,0,0,0,7.531-.918q3.127-1.517,3.127-4.271t-3.127-5.136a14.818,14.818,0,0,0-5.283-2.528l-.067.4a13.587,13.587,0,0,1,4.058,1.969q2.9,2.076,2.9,4.471t-2.9,3.726a12.621,12.621,0,0,1-6.986.8,15.064,15.064,0,0,1-7-2.595q-2.888-2.076-2.887-4.484Z" transform="translate(-450.818 -1087.084)" fill="#eeab0f"/>
      </g>
    </g>
    <g id="Group_58" data-name="Group 58" transform="translate(9.386 10.188)">
      <g id="Group_57" data-name="Group 57">
        <path id="Path_42" data-name="Path 42" d="M375.9,529.328l-.445-.077a13.834,13.834,0,0,1,.784,2.5q.126.474.223,1.045a39.578,39.578,0,0,1-.358,12.478,38.369,38.369,0,0,1-3.669,11.742q-2.556,4.763-4.956,4.366-.174-.029-.358-.068l-.358-.058q-2.4-.4-3.262-5.721a38.513,38.513,0,0,1,.31-12.3,39.232,39.232,0,0,1,3.717-11.917,7.86,7.86,0,0,1,.552-.929,13.346,13.346,0,0,1,1.559-2.1l-.455-.068a12.822,12.822,0,0,0-1.955,2.256q-.31.455-.649,1.007a37.376,37.376,0,0,0-4.211,12.662,36.4,36.4,0,0,0-.1,13.214q1.229,5.76,4.134,6.244.155.019.329.048.155.029.329.058,2.914.484,5.944-4.56a36.577,36.577,0,0,0,4.172-12.536,37.475,37.475,0,0,0,.136-13.34q-.145-.629-.31-1.171A11.884,11.884,0,0,0,375.9,529.328Z" transform="translate(-361.708 -528.214)" fill="#f90"/>
      </g>
    </g>
    <g id="Group_60" data-name="Group 60" transform="translate(24.111 35.518)">
      <g id="Group_59" data-name="Group 59">
        <path id="Path_43" data-name="Path 43" d="M522.511,1137.756l-.027-.066a13.248,13.248,0,0,0-1.9.572,14.933,14.933,0,0,1,1.929-.506m14.131,4.71q-.705-2.661-4.351-4.165a14.824,14.824,0,0,0-6.214-1.051q-1.331.08-1.717.12v.146q.373-.04.918-.08a14.016,14.016,0,0,1,5.708.852q3.353,1.251,3.965,3.566t-1.836,4.351a13,13,0,0,1-6.547,2.528,15.174,15.174,0,0,1-7.425-.705q-3.327-1.211-3.939-3.526-.04-.146-.067-.293a3.942,3.942,0,0,0,.146.945q.719,2.608,4.338,4.1a15.737,15.737,0,0,0,8.064.932,12.834,12.834,0,0,0,7.039-2.848Q537.361,1145.128,536.643,1142.466Z" transform="translate(-515.14 -1114.297)" fill="#eeab0f"/>
        <path id="Path_44" data-name="Path 44" d="M528.74,1076.9l-.146-.865q1.224,12.721,2.768,23.3a.253.253,0,0,0,.013.08q.373,2.595.772,5.056h.04l-.027-.066a48.033,48.033,0,0,0,.24-5.123v-.12A80.747,80.747,0,0,0,528.74,1076.9Z" transform="translate(-523.55 -1076.036)" fill="#f90"/>
      </g>
    </g>
    <g id="Group_62" data-name="Group 62" transform="translate(18.259 0)">
      <g id="Group_61" data-name="Group 61">
        <path id="Path_45" data-name="Path 45" d="M390.22,557.331l-.445.077a12.163,12.163,0,0,0-1.113,2.769q-.155.532-.3,1.162a37.529,37.529,0,0,0,.135,13.349,36.673,36.673,0,0,0,4.172,12.536q3.03,5.053,5.944,4.569.174-.029.329-.058.174-.029.329-.058,2.9-.484,4.134-6.234a36.4,36.4,0,0,0-.1-13.214,37.384,37.384,0,0,0-4.211-12.672q-.339-.552-.668-1.007a11.934,11.934,0,0,0-1.946-2.265l-.445.077a13.775,13.775,0,0,1,1.549,2.1,8.26,8.26,0,0,1,.552.92,39.24,39.24,0,0,1,3.717,11.926,38.291,38.291,0,0,1,.32,12.294q-.862,5.334-3.262,5.731l-.358.058-.368.058q-2.391.4-4.947-4.356a38.531,38.531,0,0,1-3.679-11.733,39.639,39.639,0,0,1-.358-12.488q.1-.561.223-1.055A13.019,13.019,0,0,1,390.22,557.331Z" transform="translate(-387.827 -556.286)" fill="#f90"/>
      </g>
    </g>
  </g>
  <g id="Business" transform="translate(32.335 466.163)">
    <g id="Group_41" data-name="Group 41" transform="translate(2.683 3.366)">
      <g id="Group_40" data-name="Group 40">
        <path id="Path_33" data-name="Path 33" d="M141.231,1027.3q-6.372,8.088-11.521,15.512-5.441,7.835-9.525,14.926a129.521,129.521,0,0,0-7.33,14.567l5.853-8.767q1.384-2.075,3.366-5.188,3.752-5.907,9.685-15.538,4.191-6.825,9.472-15.512m.386.452a99.792,99.792,0,0,0-1.982,24.664,67.38,67.38,0,0,0,.8,7.263q.572-3.712.958-7.263a114.745,114.745,0,0,0,.226-24.664m5.029,22.762q1.384-2.075,3.366-5.188,3.752-5.907,9.685-15.538,4.191-6.825,9.472-15.512-6.372,8.088-11.521,15.512-5.441,7.836-9.525,14.926a127.073,127.073,0,0,0-7.33,14.62Z" transform="translate(-112.855 -1014.276)" fill="#eeab0f"/>
      </g>
    </g>
    <g id="Group_44" data-name="Group 44" transform="translate(1.838 0)">
      <g id="Group_43" data-name="Group 43">
        <g id="Group_42" data-name="Group 42">
          <path id="Path_34" data-name="Path 34" d="M0,3.738l59.888.546A288.821,288.821,0,0,0,0,3.738Z" transform="translate(0 -2.446)" fill="#f90"/>
        </g>
      </g>
    </g>
    <g id="Group_47" data-name="Group 47" transform="translate(0 60.503) rotate(-90)">
      <g id="Group_46" data-name="Group 46">
        <g id="Group_45" data-name="Group 45">
          <path id="Path_35" data-name="Path 35" d="M0,1.292l59.888.546A288.821,288.821,0,0,0,0,1.292Z" fill="#f90"/>
        </g>
      </g>
    </g>
    <g id="Group_50" data-name="Group 50" transform="translate(62.06 1.838) rotate(90)">
      <g id="Group_49" data-name="Group 49">
        <g id="Group_48" data-name="Group 48">
          <path id="Path_36" data-name="Path 36" d="M0,1.292l59.888.546A288.821,288.821,0,0,0,0,1.292Z" fill="#f90"/>
        </g>
      </g>
    </g>
    <g id="Group_53" data-name="Group 53" transform="translate(61.646 63.56) rotate(180)">
      <g id="Group_52" data-name="Group 52">
        <g id="Group_51" data-name="Group 51">
          <path id="Path_37" data-name="Path 37" d="M0,1.292l59.888.546A288.821,288.821,0,0,0,0,1.292Z" fill="#f90"/>
        </g>
      </g>
    </g>
  </g>
  <g id="Hinna" transform="translate(176.11 327.419)">
    <g id="Group_54" data-name="Group 54">
      <path id="Path_38" data-name="Path 38" d="M712.588,964.63a7.519,7.519,0,0,1,.019-1.181,11.6,11.6,0,0,1,4.573-8.7,11.358,11.358,0,0,1,9.484-2.118,14.145,14.145,0,0,1,6,2.643,13.943,13.943,0,0,1,2.886,2.811q.094.131.169.225a14.461,14.461,0,0,1,3.167,10.215q-.019.506-.056.993l-1.2,12.8a133.515,133.515,0,0,0,.768,19.136,132.1,132.1,0,0,0-13.72-4.517,19.6,19.6,0,0,1-1.312,1.93,1.486,1.486,0,0,1-.112.131,153.259,153.259,0,0,1,18.087,6.335,152.082,152.082,0,0,1-1.5-21.348l.843-14.226q.037-.525.075-1.106a18.57,18.57,0,0,0-13.963-18.143,11.893,11.893,0,0,0-15.05,11.564,11.827,11.827,0,0,0,0,1.331,20.064,20.064,0,0,0,.787,4.536,17.371,17.371,0,0,0-4.123-1.968q-.6-.187-1.275-.375a17.131,17.131,0,0,0-1.874-.3,12.7,12.7,0,0,1,.75,1.2,14.886,14.886,0,0,1,2.287.244q.6.131,1.162.281a15.539,15.539,0,0,1,3.711,1.668,16.481,16.481,0,0,1-.581-4.067M720.1,995.8l-12.651-2.155q-.506-.075-.993-.187a14.5,14.5,0,0,1-9.053-5.679l-.169-.225a14.5,14.5,0,0,1-1.987-3.467,14.343,14.343,0,0,1-1.012-6.522,11.658,11.658,0,0,1,9.634-10.908,11.879,11.879,0,0,0-1.387-1.331,11.582,11.582,0,0,0-5.773,2.38,11.918,11.918,0,0,0-4.63,9.484,17.449,17.449,0,0,0,3.861,11.489,17.232,17.232,0,0,0,10.1,6.672q.562.113,1.087.225l13.945,2.849q.234.064.469.113.209-.24.412-.506a2.643,2.643,0,0,0,.169-.225,13.549,13.549,0,0,0,.881-1.293Q721.568,996.141,720.1,995.8Z" transform="translate(-678.008 -950.138)" fill="#eeab0f"/>
      <path id="Path_39" data-name="Path 39" d="M679.328,979.86A11.865,11.865,0,0,0,669,977.854a17.526,17.526,0,0,0-10.121,6.691,17.1,17.1,0,0,0-3.8,11.489q.019.581.056,1.124l.862,14.188a150.579,150.579,0,0,1-1.443,21.367,152.186,152.186,0,0,1,20.223-6.991l13.963-2.849q.525-.094,1.087-.225a17.118,17.118,0,0,0,9.971-6.56,1.457,1.457,0,0,0,.112-.131,19.57,19.57,0,0,0,1.312-1.931,16.871,16.871,0,0,0,2.53-9.559,11.955,11.955,0,0,0-15.069-11.546q-.694.169-1.312.356a18.569,18.569,0,0,0-4.161,1.949,18.353,18.353,0,0,0,.825-4.517q.038-.619.037-1.312a13.468,13.468,0,0,0-1.518-5.81,12.705,12.705,0,0,0-.75-1.2,12.1,12.1,0,0,0-2.474-2.53m-10.159.169a11.339,11.339,0,0,1,9.5,2.1q.186.142.356.281a11.888,11.888,0,0,1,1.387,1.331,11.679,11.679,0,0,1,2.83,7.066,9.918,9.918,0,0,1,.037,1.2,14.523,14.523,0,0,1-.637,4.03,16.516,16.516,0,0,1,3.767-1.631,9.906,9.906,0,0,1,1.162-.281,11.5,11.5,0,0,1,9.578,2.155,11.333,11.333,0,0,1,4.5,8.622,14.344,14.344,0,0,1-.993,6.485,12.725,12.725,0,0,1-1.106,2.212,13.549,13.549,0,0,1-.881,1.293,2.653,2.653,0,0,1-.169.225q-.2.266-.412.506a14.438,14.438,0,0,1-8.622,5.21q-.487.094-.993.169l-12.67,2.174a135.851,135.851,0,0,0-18.274,5.679,129.676,129.676,0,0,0,.731-19.118l-1.2-12.783q-.038-.506-.075-.993a14.468,14.468,0,0,1,3.149-10.215l.169-.225a14.01,14.01,0,0,1,2.83-2.811A14.671,14.671,0,0,1,669.169,980.029Z" transform="translate(-654.55 -967.223)" fill="#f90"/>
    </g>
  </g>
  <g id="BArMitzvah" transform="translate(23.825 202.712)">
    <g id="Group_64" data-name="Group 64" transform="translate(29.96 12.317)">
      <g id="Group_63" data-name="Group 63">
        <path id="Path_46" data-name="Path 46" d="M286.134,467.689l-.4-.052a6.682,6.682,0,0,0-1.676,2.886,2.69,2.69,0,0,0,1.227,3.215q-2.523,5.928-4.891,10.975-.086.207-.207.449-2.506,5.34-4.787,9.713l-.415-.778q.035-.259.052-.484.017-.985.069-1.988.069-.57.086-1.123a56.816,56.816,0,0,1,.778-6,7.4,7.4,0,0,1,.156-.881,28.315,28.315,0,0,1,.674-2.9,77.408,77.408,0,0,1,2.558-7.656,11.323,11.323,0,0,0,2.039-.138,3.62,3.62,0,0,0,.415-.968q.743-2.713-.709-3.491-1.072-.346-1.244-.726a1.446,1.446,0,0,1-.242-1.089l-.415-.052a8.087,8.087,0,0,0-1.746,3.232,2.666,2.666,0,0,0,1.227,3.111,61.4,61.4,0,0,0-3.145,8.728q-.242.795-.449,1.728a8.352,8.352,0,0,0-.207.916q-.76,3.059-1.417,7.19a57.223,57.223,0,0,0-.138,10.007q.035.45.086.951l5.237-1.815q1.97-.709,3.889-1.383l7.276-2.541v-.017l.121-.069a10.544,10.544,0,0,1,1.123-4.58,28.425,28.425,0,0,1,1.348-2.748q.363-.674.743-1.365.138-.294.328-.657a.717.717,0,0,1,.1-.138q1.123-2.091,3.474-5.582a6.873,6.873,0,0,1,.432-.64,1.4,1.4,0,0,1,.156-.294,17.725,17.725,0,0,0,1.4-2.8,9.628,9.628,0,0,0,1.815-2.921q.691-1.988-.553-2.869l-.795-.64q-.622-.294-.38-1.331l-.415-.069a7.173,7.173,0,0,0-1.555,1.97,5.383,5.383,0,0,0-.38.778,1.549,1.549,0,0,0-.19.432q-.052.173-.1.328a2.8,2.8,0,0,0-.052.691,1.988,1.988,0,0,0,.968,1.573,1.757,1.757,0,0,1,.536,1.469v.173a4.922,4.922,0,0,1-.484,1.763,16.872,16.872,0,0,1-1.02,1.538q-.225.346-.484.674-.017.035-.035.035-2.074,2.817-3.647,5.2-.156.242-.294.449a4.895,4.895,0,0,0-.294.484q-1.314,1.936-2.23,3.543-.519.933-1.072,1.8v.035l-.328.1a.284.284,0,0,1-.086.017q-.225.069-.432.138-.138.052-.259.1a9.37,9.37,0,0,0-1.089.38l-3.007.968a38.322,38.322,0,0,1,1.9-4.079q.657-1.262,1.365-2.558a16.86,16.86,0,0,1,.864-1.555,1.148,1.148,0,0,1,.069-.121q.674-1.141,1.3-2.264,1.106-1.832,2.212-3.595.156-.19.328-.4.467-.761.9-1.469.709-1.193,1.555-2.748a.444.444,0,0,0,.622-.207,6.916,6.916,0,0,0,.57-1.279q.743-2.4-.726-3.128-.121-.121-.276-.259l-.8-.639q-.657-.277-.449-1.314l-.415-.069a7.121,7.121,0,0,0-1.988,3.2,2.153,2.153,0,0,0,.864,2.644,1.3,1.3,0,0,1,.536.847,4.371,4.371,0,0,1-.19,1.988,7.026,7.026,0,0,1-.311.8,13.5,13.5,0,0,1-1.832,2.99q-.864,1.279-1.659,2.471-.743,1.175-1.4,2.229a.055.055,0,0,0-.035.052q-.536.847-1.02,1.625a78.967,78.967,0,0,0-4.234,7.691q-.017,0-.017.086l-1.659.5a5.4,5.4,0,0,0-.553.207l-2.42-.4q2.627-5.2,5.029-10.525.086-.19.19-.38,2.385-5.392,4.545-10.854a5.4,5.4,0,0,0,1.867-.156,6.848,6.848,0,0,0,.536-1.331q.639-2.368-.83-3.128l-.9-.311Q286.065,468.916,286.134,467.689Z" transform="translate(-273.183 -466.6)" fill="#eeab0f"/>
      </g>
    </g>
    <g id="Group_66" data-name="Group 66" transform="translate(13.771 0)">
      <g id="Group_65" data-name="Group 65">
        <path id="Path_47" data-name="Path 47" d="M146.456,249.267l-.2.626q-3.546,8.209-16.16,53.387Q142.309,272.592,146.456,249.267Z" transform="translate(-130.1 -249.267)" fill="#f90"/>
      </g>
    </g>
    <g id="Group_68" data-name="Group 68" transform="translate(0 6.24)">
      <g id="Group_67" data-name="Group 67">
        <path id="Path_48" data-name="Path 48" d="M-236.516,248.369q-10.087,20.416-11.774,36.039Z" transform="translate(248.291 -248.369)" fill="#f90"/>
      </g>
    </g>
    <g id="Group_70" data-name="Group 70" transform="translate(55.122 8.218)">
      <g id="Group_69" data-name="Group 69">
        <path id="Path_49" data-name="Path 49" d="M-283.722,757.454a139.249,139.249,0,0,0,13.165-43.911Z" transform="translate(283.722 -713.543)" fill="#f90"/>
      </g>
    </g>
    <g id="Group_72" data-name="Group 72" transform="translate(30.062 0.181)">
      <g id="Group_71" data-name="Group 71">
        <path id="Path_50" data-name="Path 50" d="M-107.808,232.425q-8.426-5.563-38.213-7.886Z" transform="translate(146.021 -224.54)" fill="#f90"/>
      </g>
    </g>
    <g id="Group_74" data-name="Group 74" transform="translate(11.779 0.154)">
      <g id="Group_73" data-name="Group 73">
        <path id="Path_51" data-name="Path 51" d="M-180.591,224.462q-8.669.351-18.323,6.076Z" transform="translate(198.914 -224.462)" fill="#f90"/>
      </g>
    </g>
  </g>
  <text id="חתונה" transform="translate(212 293.179)" fill="#eeab0f" font-size="22" font-family="Aharoni-Bold, Aharoni" font-weight="700"><tspan x="-22.526" y="0">חתונה</tspan></text>
  <text id="חינה" transform="translate(212 426.179)" fill="#eeab0f" font-size="22" font-family="Aharoni-Bold, Aharoni" font-weight="700"><tspan x="-16.742" y="0">חינה</tspan></text>
  <text id="חינה-2" data-name="חינה" transform="translate(212 558.179)" fill="#eeab0f" font-size="22" font-family="Aharoni-Bold, Aharoni" font-weight="700"><tspan x="-16.742" y="0">חינה</tspan></text>
  <text id="בר_מצווה" data-name="בר מצווה" transform="translate(64 293.179)" fill="#eeab0f" font-size="22" font-family="Aharoni-Bold, Aharoni" font-weight="700"><tspan x="-34.703" y="0">בר מצווה</tspan></text>
  <text id="ברית" transform="translate(64 426.179)" fill="#eeab0f" font-size="22" font-family="Aharoni-Bold, Aharoni" font-weight="700"><tspan x="-17.961" y="0">ברית</tspan></text>
  <text id="אירוע_עסקי" data-name="אירוע עסקי" transform="translate(64 558.179)" fill="#eeab0f" font-size="22" font-family="Aharoni-Bold, Aharoni" font-weight="700"><tspan x="-42.937" y="0">אירוע עסקי</tspan></text>
</svg>
