
<svg xmlns="http://www.w3.org/2000/svg" version="1.1" xmlns:xlink="http://www.w3.org/1999/xlink" preserveAspectRatio="none" x="0px" y="0px" width="118px" height="132px" viewBox="0 0 118 132">
<defs>
<g id="Layer0_0_MEMBER_0_MEMBER_0_MEMBER_0_FILL">
<path fill="#2E435B" stroke="none" d="
M 106.3 259.2
Q 113.75 246.8 106.1 230.25 98.45 213.7 80.15 202.7 61.9 191.7 43.7 192.75 25.45 193.75 18 206.2 10.55 218.6 18.2 235.15 25.85 251.7 44.1 262.7 62.4 273.7 80.6 272.65 98.85 271.65 106.3 259.2 Z"/>
</g>

<g id="Layer0_0_MEMBER_0_MEMBER_1_FILL">
<path fill="#2E435B" stroke="none" d="
M 106.3 259.2
Q 113.75 246.8 106.1 230.25 98.45 213.7 80.15 202.7 61.9 191.7 43.7 192.75 25.45 193.75 18 206.2 10.55 218.6 18.2 235.15 25.85 251.7 44.1 262.7 62.4 273.7 80.6 272.65 98.85 271.65 106.3 259.2 Z"/>
</g>

<g id="Layer0_0_MEMBER_1_MEMBER_0_MEMBER_0_MEMBER_0_FILL">
<path fill="#EEAB0F" stroke="none" d="
M 66.7 216.1
L 66.3 216.05
Q 65.1 217.25 64.65 218.95 64.3 219.9 64.65 220.8 65 221.7 65.85 222.15 63.65 227.4 60.95 233.15
L 60.75 233.6
Q 58.4 238.7 56 243.3
L 55.55 242.5 55.75 238.95
Q 55.95 236.35 56.55 232.95
L 56.7 232.05
Q 57.05 230.2 57.4 229.15 58.45 225.25 59.95 221.5
L 61.95 221.35
Q 62.25 220.9 62.4 220.4 63.15 217.65 61.7 216.9 60.6 216.55 60.45 216.15 60.1 215.75 60.2 215.1
L 59.8 215.05
Q 58.5 216.4 58.05 218.25 57.75 219.15 58.1 220.05 58.45 220.9 59.25 221.35 57.35 225.65 56.1 230.1
L 55.45 232.75
Q 54.8 235.5 54.05 239.95 53.55 244.9 53.9 249.95
L 54 250.9 70.4 245.15 70.5 245.05
Q 70.6 242.5 71.65 240.5 72.2 239.2 73 237.75
L 74.05 235.7 74.15 235.6
Q 75.5 233.15 77.65 230
L 78.2 229.05
Q 79.2 227.45 79.6 226.25 80.7 225.05 81.45 223.35 82.1 221.35 80.9 220.45
L 80.1 219.85
Q 79.45 219.55 79.7 218.5
L 79.3 218.45
Q 78.35 219.25 77.75 220.4
L 77.15 221.6 77.05 221.95 77 222.65
Q 77.1 223.65 78 224.2 78.65 224.85 78.5 225.65
L 78.5 225.85
Q 78.4 226.8 78.05 227.6 77.3 228.75 77 229.15
L 76.55 229.8 76.5 229.85
Q 74.35 232.8 72.85 235.05
L 72.25 236
Q 70.65 238.45 70.05 239.55
L 68.95 241.35 68.65 241.45 68.55 241.5 68.1 241.6 63.75 243.05
Q 64.5 241.1 65.65 239
L 67 236.45
Q 67.65 235.25 67.9 234.9
L 67.95 234.75 71.45 228.9 71.8 228.5 74.25 224.3
Q 74.65 224.5 74.85 224.1
L 74.85 224.05
Q 75.25 223.4 75.45 222.8 76.2 220.4 74.7 219.65
L 74.45 219.4 73.65 218.75
Q 72.95 218.5 73.2 217.45
L 72.75 217.4
Q 71.3 218.75 70.8 220.6 70.5 221.3 70.75 222.1 71 222.85 71.65 223.25 72.15 223.55 72.2 224.1 72.35 224.95 72 226.05
L 71.7 226.85
Q 70.9 228.55 69.85 229.85
L 66.8 234.55 66.75 234.6 65.75 236.25
Q 63.35 240 61.5 243.9
L 61.5 244 59.3 244.7 56.85 244.3
Q 59.7 238.7 61.9 233.8
L 62.05 233.4
Q 64.9 227 66.6 222.55 67.6 222.65 68.5 222.4 68.9 221.65 69 221.05 69.7 218.75 68.2 217.95
L 67.3 217.65
Q 66.65 217.35 66.7 216.1 Z"/>
</g>

<g id="Layer0_0_MEMBER_1_MEMBER_1_MEMBER_0_MEMBER_0_FILL">
<path fill="#FF9900" stroke="none" d="
M 53.95 202.7
L 53.75 203.35
Q 50.4 211 37.55 256.7 49.75 226.15 53.95 202.7 Z"/>
</g>

<g id="Layer0_0_MEMBER_1_MEMBER_2_MEMBER_0_MEMBER_0_FILL">
<path fill="#FF9900" stroke="none" d="
M 23.8 245
L 35.55 208.95
Q 25.55 229.3 23.8 245 Z"/>
</g>

<g id="Layer0_0_MEMBER_1_MEMBER_3_MEMBER_0_MEMBER_0_FILL">
<path fill="#FF9900" stroke="none" d="
M 92.1 210.95
L 78.9 254.85
Q 89.15 234.05 92.1 210.95 Z"/>
</g>

<g id="Layer0_0_MEMBER_1_MEMBER_4_MEMBER_0_MEMBER_0_FILL">
<path fill="#FF9900" stroke="none" d="
M 53.85 202.9
L 92.05 210.75
Q 83.7 205.25 53.85 202.9 Z"/>
</g>

<g id="Layer0_0_MEMBER_1_MEMBER_5_MEMBER_0_MEMBER_0_FILL">
<path fill="#FF9900" stroke="none" d="
M 35.6 208.95
L 53.9 202.85
Q 45.1 203.25 35.6 208.95 Z"/>
</g>

<path id="Layer0_0_MEMBER_0_MEMBER_0_MEMBER_1_1_STROKES" stroke="#707070" stroke-width="1" stroke-linejoin="miter" stroke-linecap="butt" stroke-miterlimit="4" fill="none" d="
M 79.9 203.15
Q 98 214 105.6 230.4 113.2 246.7 105.85 258.95 98.5 271.2 80.5 272.2 62.45 273.15 44.4 262.25 26.3 251.35 18.7 235.05 11.05 218.65 18.45 206.45 25.8 194.2 43.8 193.2 61.8 192.25 79.9 203.15 Z"/>
</defs>

<g transform="matrix( 1, 0, 0, 1, -3.15,-166.7) ">
<use xlink:href="#Layer0_0_MEMBER_0_MEMBER_0_MEMBER_0_FILL"/>
</g>

<g transform="matrix( 1, 0, 0, 1, -3.15,-166.7) ">
<use xlink:href="#Layer0_0_MEMBER_0_MEMBER_0_MEMBER_1_1_STROKES"/>
</g>

<g transform="matrix( 1, 0, 0, 1, -3.15,-166.7) ">
<use xlink:href="#Layer0_0_MEMBER_0_MEMBER_1_FILL"/>
</g>

<g transform="matrix( 1, 0, 0, 1, -3.15,-166.7) ">
<use xlink:href="#Layer0_0_MEMBER_1_MEMBER_0_MEMBER_0_MEMBER_0_FILL"/>
</g>

<g transform="matrix( 1, 0, 0, 1, -3.15,-166.7) ">
<use xlink:href="#Layer0_0_MEMBER_1_MEMBER_1_MEMBER_0_MEMBER_0_FILL"/>
</g>

<g transform="matrix( 1, 0, 0, 1, -3.15,-166.7) ">
<use xlink:href="#Layer0_0_MEMBER_1_MEMBER_2_MEMBER_0_MEMBER_0_FILL"/>
</g>

<g transform="matrix( 1, 0, 0, 1, -3.15,-166.7) ">
<use xlink:href="#Layer0_0_MEMBER_1_MEMBER_3_MEMBER_0_MEMBER_0_FILL"/>
</g>

<g transform="matrix( 1, 0, 0, 1, -3.15,-166.7) ">
<use xlink:href="#Layer0_0_MEMBER_1_MEMBER_4_MEMBER_0_MEMBER_0_FILL"/>
</g>

<g transform="matrix( 1, 0, 0, 1, -3.15,-166.7) ">
<use xlink:href="#Layer0_0_MEMBER_1_MEMBER_5_MEMBER_0_MEMBER_0_FILL"/>
</g>
</svg>
