
<svg xmlns="http://www.w3.org/2000/svg" version="1.1" xmlns:xlink="http://www.w3.org/1999/xlink" preserveAspectRatio="none" x="0px" y="0px" width="118px" height="132px" viewBox="0 0 118 132">
<defs>
<g id="Layer6_0_MEMBER_0_MEMBER_0_MEMBER_0_FILL">
<path fill="#2E435B" stroke="none" d="
M 80.15 335.7
Q 61.9 324.7 43.7 325.75 25.45 326.75 18 339.2 10.55 351.6 18.2 368.15 25.85 384.7 44.1 395.7 62.4 406.7 80.6 405.65 98.85 404.65 106.3 392.2 113.75 379.8 106.1 363.25 98.45 346.7 80.15 335.7 Z"/>
</g>

<g id="Layer6_0_MEMBER_0_MEMBER_1_FILL">
<path fill="#2E435B" stroke="none" d="
M 80.15 335.7
Q 61.9 324.7 43.7 325.75 25.45 326.75 18 339.2 10.55 351.6 18.2 368.15 25.85 384.7 44.1 395.7 62.4 406.7 80.6 405.65 98.85 404.65 106.3 392.2 113.75 379.8 106.1 363.25 98.45 346.7 80.15 335.7 Z"/>
</g>

<g id="Layer6_0_MEMBER_1_MEMBER_0_MEMBER_0_MEMBER_0_FILL">
<path fill="#EEAB0F" stroke="none" d="
M 67.6 341.2
Q 68.75 342.15 69.6 343.45 70.65 342.55 72.15 341.95
L 73.1 341.6
Q 75.9 340.8 78.5 340.8
L 78.6 339.45
Q 75.85 339.7 73.55 340.55 73 340.7 72.55 341 70.9 341.7 69.75 342.85 68.9 341.3 67.65 340.2
L 66.85 339.4
Q 64.7 337.75 62.45 336.75
L 62.15 338.1
Q 64.8 339.05 66.85 340.55
L 67.6 341.2
M 41.15 342.6
L 41.25 342.1 41.25 341.65
Q 41.75 338.65 46.4 337.15 48.25 336.6 49.6 336.5
L 49.75 334.7
Q 47.65 334.9 45 335.75 40 337.7 39.4 341.4
L 39.25 342.25
Q 38.65 345.9 42.75 349.35 47.5 353 53.2 353.75 59 354.9 64.6 353
L 65.6 352.55
Q 67.15 351.8 68.25 350.85
L 68.45 350.7
Q 69.35 352.35 70.5 353.35
L 71.3 354.1
Q 75.85 357.7 81.85 358.55 87.65 359.65 93.1 357.75 98.1 355.8 98.75 352.15
L 98.8 351.7 98.9 351.3
Q 99.5 347.65 95.4 344.15 93.5 342.65 91.3 341.65
L 90.85 343.4
Q 92 343.95 93.5 345 97.4 347.95 96.9 350.95
L 96.8 351.35 96.75 351.85
Q 96.3 354.85 91.6 356.35 86.45 357.8 81.15 356.8 75.65 356.05 71.2 352.95 70.55 352.45 70.45 352.3 69.25 351.4 68.55 350.1 67.15 351.1 65.9 351.55
L 64.95 351.9
Q 59.7 353.35 54.35 352.35 48.9 351.6 44.55 348.5 40.65 345.55 41.15 342.6 Z"/>
</g>

<g id="Layer6_0_MEMBER_1_MEMBER_1_MEMBER_0_MEMBER_0_FILL">
<path fill="#EEAB0F" stroke="none" d="
M 29.5 373.3
Q 29.8 376.3 33.15 379.15 37.85 382.9 43.65 383.9 49.35 385.25 55.05 383.55 55.95 383.15 56.05 383.1 57.5 382.55 58.9 381.4 59.7 382.85 60.95 384.1
L 61.8 384.9
Q 66.45 388.65 72.4 389.7 78.15 391 83.7 389.25 88.1 387.75 89 384.75 88.1 387.1 83.85 388.15 78.2 389.35 72.65 388.1 66.9 387.15 61.9 383.75 61.6 383.6 61.1 383.1 59.9 382.2 58.95 380.75 57.7 381.6 56.2 382.1
L 55.2 382.4
Q 49.45 383.6 43.85 382.35 38.2 381.4 33.25 378.05 29.95 375.6 29.5 373.3 Z"/>
</g>

<g id="Layer6_0_MEMBER_1_MEMBER_2_MEMBER_0_MEMBER_0_FILL">
<path fill="#FF9900" stroke="none" d="
M 65.65 388.7
L 64.75 388.2
Q 63.2 392.65 63.2 397.45 63.35 401.9 65.55 402.3
L 65.8 402.3 66.05 402.35
Q 68.25 402.75 71.25 398.85 73.85 395.35 75.4 391.35
L 74.35 391.25
Q 73.15 394.25 71.1 397.15 68.5 400.85 66.7 400.55
L 66.15 400.45
Q 64.35 400.15 64.4 396.05 64.55 392.15 65.65 388.7
M 37.7 393.2
Q 35.9 392.9 35.95 388.8 36 385.9 36.8 382.85
L 35.9 382.35
Q 34.7 386.25 34.75 390.2 34.9 394.65 37.1 395.05
L 37.35 395.1 37.6 395.1
Q 39.8 395.5 42.8 391.6 44.95 388.75 46.3 385.6
L 45.25 385.45
Q 44.3 387.55 42.65 389.95 40.05 393.6 38.25 393.3
L 37.7 393.2 Z"/>
</g>

<g id="Layer6_0_MEMBER_1_MEMBER_3_MEMBER_0_MEMBER_0_FILL">
<path fill="#FF9900" stroke="none" d="
M 60.8 319.75
L 61.35 319.85
Q 63.2 320.15 63.1 324.3 62.85 329.25 61.15 333.8 59.6 338.75 56.7 343.05
L 56.15 343.75
Q 55.15 344.95 54.65 345.4
L 54.95 345.45
Q 56.05 344.6 56.8 343.7
L 57.45 342.9
Q 60.75 338.3 62.45 333.1 64.3 328.1 64.3 322.85 64.15 318.45 61.95 318.05
L 61.45 317.95
Q 59.25 317.6 56.25 321.5 52.9 326.1 51.3 331.2 49.4 336.2 49.4 341.55
L 49.45 342.4
Q 49.5 343.45 49.95 344.55
L 50.25 344.65
Q 50 343.55 50 342.7
L 49.95 341.9
Q 50.15 337.1 51.95 332.2 53.45 327.4 56.4 323.15 59.05 319.45 60.8 319.75 Z"/>
</g>

<g id="Layer6_0_MEMBER_1_MEMBER_4_MEMBER_0_MEMBER_0_FILL">
<path fill="#FF9900" stroke="none" d="
M 78.45 350.05
L 78.45 349.2
Q 78.7 344.2 80.4 339.55 82 334.75 84.85 330.5 87.45 326.8 89.3 327.1
L 89.85 327.2
Q 91.6 327.5 91.6 331.65 91.3 336.6 89.65 341.15 88.1 345.9 85.15 350.35
L 84.6 351.1
Q 83.85 352 83.1 352.7
L 83.45 352.8
Q 84.45 352 85.25 351
L 85.9 350.25
Q 89.15 345.85 90.9 340.45 92.7 335.65 92.8 330.2 92.55 325.7 90.4 325.35
L 90.15 325.35 89.95 325.3
Q 87.7 324.9 84.7 328.8 81.55 333.15 79.75 338.5 77.95 343.6 77.85 348.85
L 77.9 349.75
Q 78.05 350.95 78.4 351.9
L 78.75 351.95
Q 78.55 351.05 78.45 350.05 Z"/>
</g>

<g id="Layer6_0_MEMBER_1_MEMBER_5_MEMBER_0_MEMBER_0_FILL">
<path fill="#EEAB0F" stroke="none" d="
M 99.15 352.2
L 89 384.4
Q 96.75 374.3 99.15 352.2
M 29.8 373
L 39.25 340.6
Q 29.8 359.9 29.8 373
M 68.55 350.4
L 68.55 350.35 68.35 350.9
Q 64.75 359.55 59 380.35 64.55 369.65 68.55 350.4 Z"/>
</g>

<path id="Layer6_0_MEMBER_0_MEMBER_0_MEMBER_1_1_STROKES" stroke="#707070" stroke-width="1" stroke-linejoin="miter" stroke-linecap="butt" stroke-miterlimit="4" fill="none" d="
M 79.9 336.15
Q 98 347 105.6 363.4 113.2 379.7 105.85 391.95 98.5 404.2 80.5 405.2 62.45 406.15 44.4 395.25 26.3 384.35 18.7 368.05 11.05 351.65 18.45 339.45 25.8 327.2 43.8 326.2 61.8 325.25 79.9 336.15 Z"/>
</defs>

<g transform="matrix( 1, 0, 0, 1, -3.15,-295.8) ">
<use xlink:href="#Layer6_0_MEMBER_0_MEMBER_0_MEMBER_0_FILL"/>
</g>

<g transform="matrix( 1, 0, 0, 1, -3.15,-295.8) ">
<use xlink:href="#Layer6_0_MEMBER_0_MEMBER_0_MEMBER_1_1_STROKES"/>
</g>

<g transform="matrix( 1, 0, 0, 1, -3.15,-295.8) ">
<use xlink:href="#Layer6_0_MEMBER_0_MEMBER_1_FILL"/>
</g>

<g transform="matrix( 1, 0, 0, 1, -3.15,-295.8) ">
<use xlink:href="#Layer6_0_MEMBER_1_MEMBER_0_MEMBER_0_MEMBER_0_FILL"/>
</g>

<g transform="matrix( 1, 0, 0, 1, -3.15,-295.8) ">
<use xlink:href="#Layer6_0_MEMBER_1_MEMBER_1_MEMBER_0_MEMBER_0_FILL"/>
</g>

<g transform="matrix( 1, 0, 0, 1, -3.15,-295.8) ">
<use xlink:href="#Layer6_0_MEMBER_1_MEMBER_2_MEMBER_0_MEMBER_0_FILL"/>
</g>

<g transform="matrix( 1, 0, 0, 1, -3.15,-295.8) ">
<use xlink:href="#Layer6_0_MEMBER_1_MEMBER_3_MEMBER_0_MEMBER_0_FILL"/>
</g>

<g transform="matrix( 1, 0, 0, 1, -3.15,-295.8) ">
<use xlink:href="#Layer6_0_MEMBER_1_MEMBER_4_MEMBER_0_MEMBER_0_FILL"/>
</g>

<g transform="matrix( 1, 0, 0, 1, -3.15,-295.8) ">
<use xlink:href="#Layer6_0_MEMBER_1_MEMBER_5_MEMBER_0_MEMBER_0_FILL"/>
</g>
</svg>
