
<svg xmlns="http://www.w3.org/2000/svg" version="1.1" xmlns:xlink="http://www.w3.org/1999/xlink" preserveAspectRatio="none" x="0px" y="0px" width="118px" height="132px" viewBox="0 0 118 132">
<defs>
<g id="Layer1_0_MEMBER_0_MEMBER_0_FILL">
<path fill="#2E435B" stroke="none" d="
M 80.15 467.7
Q 61.9 456.7 43.7 457.75 25.45 458.75 18 471.2 10.55 483.6 18.2 500.15 25.85 516.7 44.1 527.7 62.4 538.7 80.6 537.65 98.85 536.65 106.3 524.2 113.75 511.8 106.1 495.25 98.45 478.7 80.15 467.7 Z"/>
</g>

<g id="Layer1_0_MEMBER_1_FILL">
<path fill="#2E435B" stroke="none" d="
M 80.15 467.7
Q 61.9 456.7 43.7 457.75 25.45 458.75 18 471.2 10.55 483.6 18.2 500.15 25.85 516.7 44.1 527.7 62.4 538.7 80.6 537.65 98.85 536.65 106.3 524.2 113.75 511.8 106.1 495.25 98.45 478.7 80.15 467.7 Z"/>
</g>

<g id="Layer1_1_MEMBER_0_MEMBER_0_MEMBER_0_FILL">
<path fill="#EEAB0F" stroke="none" d="
M 70.25 499.95
Q 66.1 507.1 62.95 514.6
L 91.3 469.55
Q 85 477.5 79.8 485.05 74.8 492.15 70.25 499.95
M 62.55 514.95
Q 62.95 512.45 63.55 507.65 64.95 495.5 63.75 483 61.2 495.05 61.75 507.65 61.95 510.65 62.55 514.95
M 44.2 513.6
Q 49.65 504.95 53.9 498.05
L 63.35 482.55
Q 57.25 490.3 51.85 498.05 46.5 505.75 42.3 513 38.15 520.2 35 527.55
L 44.2 513.6 Z"/>
</g>

<g id="Layer1_1_MEMBER_1_MEMBER_0_MEMBER_0_MEMBER_0_FILL">
<path fill="#FF9900" stroke="none" d="
M 94.05 468
Q 64 464.6 34.15 467.45
L 94.05 468 Z"/>
</g>

<g id="Layer1_1_MEMBER_2_MEMBER_0_MEMBER_0_MEMBER_0_FILL">
<path fill="#FF9900" stroke="none" d="
M 34.15 466.75
Q 30.75 496.8 33.6 526.65
L 34.15 466.75 Z"/>
</g>

<g id="Layer1_1_MEMBER_3_MEMBER_0_MEMBER_0_MEMBER_0_FILL">
<path fill="#FF9900" stroke="none" d="
M 92.55 527.9
Q 95.9 498.2 93.1 468
L 92.55 527.9 Z"/>
</g>

<g id="Layer1_1_MEMBER_4_MEMBER_0_MEMBER_0_MEMBER_0_FILL">
<path fill="#FF9900" stroke="none" d="
M 34.05 527.9
Q 63.75 531.25 93.95 528.45
L 34.05 527.9 Z"/>
</g>

<path id="Layer1_0_MEMBER_0_MEMBER_1_1_STROKES" stroke="#707070" stroke-width="1" stroke-linejoin="miter" stroke-linecap="butt" stroke-miterlimit="4" fill="none" d="
M 79.9 468.15
Q 98 479 105.6 495.4 113.2 511.7 105.85 523.95 98.5 536.2 80.5 537.2 62.45 538.15 44.4 527.25 26.3 516.35 18.7 500.05 11.05 483.65 18.45 471.45 25.8 459.2 43.8 458.2 61.8 457.25 79.9 468.15 Z"/>
</defs>

<g transform="matrix( 1, 0, 0, 1, -3.15,-431.7) ">
<use xlink:href="#Layer1_0_MEMBER_0_MEMBER_0_FILL"/>
</g>

<g transform="matrix( 1, 0, 0, 1, -3.15,-431.7) ">
<use xlink:href="#Layer1_0_MEMBER_0_MEMBER_1_1_STROKES"/>
</g>

<g transform="matrix( 1, 0, 0, 1, -3.15,-431.7) ">
<use xlink:href="#Layer1_0_MEMBER_1_FILL"/>
</g>

<g transform="matrix( 1, 0, 0, 1, -4.3,-431.9) ">
<use xlink:href="#Layer1_1_MEMBER_0_MEMBER_0_MEMBER_0_FILL"/>
</g>

<g transform="matrix( 1, 0, 0, 1, -4.3,-431.9) ">
<use xlink:href="#Layer1_1_MEMBER_1_MEMBER_0_MEMBER_0_MEMBER_0_FILL"/>
</g>

<g transform="matrix( 1, 0, 0, 1, -4.3,-431.9) ">
<use xlink:href="#Layer1_1_MEMBER_2_MEMBER_0_MEMBER_0_MEMBER_0_FILL"/>
</g>

<g transform="matrix( 1, 0, 0, 1, -4.3,-431.9) ">
<use xlink:href="#Layer1_1_MEMBER_3_MEMBER_0_MEMBER_0_MEMBER_0_FILL"/>
</g>

<g transform="matrix( 1, 0, 0, 1, -4.3,-431.9) ">
<use xlink:href="#Layer1_1_MEMBER_4_MEMBER_0_MEMBER_0_MEMBER_0_FILL"/>
</g>
</svg>
