
<svg xmlns="http://www.w3.org/2000/svg" version="1.1" xmlns:xlink="http://www.w3.org/1999/xlink" preserveAspectRatio="none" x="0px" y="0px" width="118px" height="132px" viewBox="0 0 118 132">
<defs>
<g id="Layer0_0_MEMBER_0_MEMBER_0_MEMBER_0_FILL">
<path fill="#FF9900" stroke="none" d="
M 118.55 55.9
L 118.35 57
Q 114.8 68.35 113.95 80.65
L 113.95 81.1
Q 113.7 85.95 114.15 90.5
L 114.15 90.55 114.2 90.55
Q 115.25 83.65 115.55 81.45
L 115.65 81
Q 117.15 70.05 118.55 55.9 Z"/>
</g>

<g id="Layer0_0_MEMBER_0_MEMBER_0_MEMBER_1_FILL">
<path fill="#EEAB0F" stroke="none" d="
M 112.55 80.85
L 113.5 81 113.5 80.6 113.45 80.55
Q 108.7 79.7 104.25 81.7 108.3296875 80.122265625 112.55 80.85
M 100.5 86.35
L 100.45 86.9
Q 100.45 90.25 104.25 93.15 108.35 96.2 113.45 96.8 118.2 97.65 122.6 95.65 126.4 93.85 126.4 90.45 126.4 87.1 122.6 84.2 119.75 82 116.15 81.1
L 116.1 81.6
Q 118.85 82.45 121.05 84 124.55 86.55 124.55 89.45 124.55 92.35 121.05 94 116.85 95.7 112.55 94.95 107.95 94.5 104 91.8 100.5 89.25 100.5 86.35 Z"/>
</g>

<g id="Layer0_0_MEMBER_1_MEMBER_0_MEMBER_0_FILL">
<path fill="#FF9900" stroke="none" d="
M 130.5 17.15
Q 129.95 15.3 129.15 13.8
L 128.6 13.7
Q 129.3 15.45 129.55 16.75
L 129.8 18
Q 130.85 25.55 129.4 33.2 128.25 40.75 124.9 47.5 121.85 53.3 118.85 52.85
L 118.45 52.75 118 52.7
Q 115.1 52.2 114.05 45.7 113 38.1 114.4 30.7 115.55 22.9 118.95 16.2
L 119.6 15.05
Q 120.35 13.8 121.5 12.5
L 120.95 12.45
Q 119.55 13.7 118.55 15.2
L 117.8 16.4
Q 113.8 23.65 112.65 31.85 111.1 39.75 112.55 47.95 114.05 54.95 117.55 55.55
L 118.35 55.65
Q 121.95 56.25 125.6 50.1 129.55 42.95 130.7 34.85 132.2 26.75 130.85 18.6
L 130.5 17.15 Z"/>
</g>

<g id="Layer0_0_MEMBER_2_MEMBER_0_MEMBER_0_FILL">
<path fill="#EEAB0F" stroke="none" d="
M 150.75 72.6
Q 147.1 71.15 143.15 71.3
L 141.05 71.45 141.05 71.65 142.2 71.55
Q 145.7 71.35 149.15 72.55 153.2 74.15 153.95 76.9 154.8 79.8 151.75 82.2 148.2 84.85 143.75 85.3 139.1 86 134.7 84.4 130.65 83 129.9 80.15
L 130 80.95
Q 130.9 84.1 135.3 85.9 140.05 87.8 145.1 87.05 149.85 86.7 153.7 83.6 156.85 80.95 156.05 77.65 155.15 74.4 150.75 72.6 Z"/>
</g>

<g id="Layer0_0_MEMBER_2_MEMBER_0_MEMBER_1_FILL">
<path fill="#FF9900" stroke="none" d="
M 136.15 44.4
L 135.95 43.35
Q 137.4 58.45 139.35 71.75
L 139.35 71.85 140.3 78 140.35 78 140.3 77.9
Q 140.6 75.45 140.6 71.65
L 140.6 71.5
Q 140.3 57.7 136.15 44.4 Z"/>
</g>

<g id="Layer0_0_MEMBER_3_MEMBER_0_MEMBER_0_FILL">
<path fill="#FF9900" stroke="none" d="
M 134.55 2.65
L 135.2 3.75
Q 138.7 10.75 139.75 18.3 141.15 25.6 140.15 33.25 139.1 39.8 136.15 40.25
L 135.75 40.35 135.3 40.4
Q 132.4 40.85 129.25 35.1 125.9 28.4 124.75 20.8 123.35 13.35 124.35 5.6
L 124.6 4.3
Q 125 2.55 125.6 1.25
L 125.05 1.35
Q 124.15 3.05 123.7 4.75
L 123.3 6.15
Q 121.95 14.4 123.5 22.4 124.65 30.55 128.55 37.7 132.25 43.85 135.8 43.25
L 136.6 43.1
Q 140.15 42.5 141.65 35.5 143.1 27.5 141.5 19.4 140.35 11.25 136.4 4
L 135.6 2.75
Q 134.45 1.1 133.2 0
L 132.65 0.1
Q 133.8 1.4 134.55 2.65 Z"/>
</g>

<g id="Layer0_0_MEMBER_4_MEMBER_0_MEMBER_0_FILL">
<path fill="#EEAB0F" stroke="none" d="
M 193.2 131.15
L 193.2 127.1 184.9 127.1 184.9 108.8 179.9 108.8 179.9 131.15 193.2 131.15
M 175.7 108.8
L 170.65 108.8 170.65 131.15 175.7 131.15 175.7 108.8 Z"/>
</g>

<g id="Layer0_0_MEMBER_4_MEMBER_0_MEMBER_1_FILL">
<path fill="#FF9900" stroke="none" d="
M 110.65 108.8
L 105.35 108.8 100.7 124.3
Q 100.4 125.4 100.25 126.6
L 100.15 126.6 99.7 124.35 95.05 108.8 89.6 108.8 97.2 131.2 102.95 131.2 110.65 108.8
M 124.8 121.95
L 124.8 117.9 117.45 117.9 117.45 112.9 125.3 112.9 125.3 108.8 112.4 108.8 112.4 131.15 125.85 131.15 125.85 127.1 117.45 127.1 117.45 121.95 124.8 121.95
M 148.65 108.8
L 143.9 108.8 143.9 121.15
Q 143.85 122.5 144 124.25
L 143.95 124.25 133.95 108.8 128.5 108.8 128.5 131.2 133.3 131.2 133.3 118.85
Q 133.3 117.05 133.15 115.25
L 133.2 115.25 143.55 131.2 148.65 131.2 148.65 108.8
M 80.8 127.1
L 80.8 121.95 88.1 121.95 88.1 117.9 80.8 117.9 80.8 112.9 88.65 112.9 88.65 108.8 75.75 108.8 75.75 131.15 89.15 131.15 89.15 127.1 80.8 127.1
M 168.55 112.9
L 168.55 108.8 150.8 108.8 150.8 112.9 157.15 112.9 157.15 131.15 162.2 131.15 162.2 112.9 168.55 112.9 Z"/>
</g>
</defs>

<g transform="matrix( 1, 0, 0, 1, -75.45,0.4) ">
<use xlink:href="#Layer0_0_MEMBER_0_MEMBER_0_MEMBER_0_FILL"/>
</g>

<g transform="matrix( 1, 0, 0, 1, -75.45,0.4) ">
<use xlink:href="#Layer0_0_MEMBER_0_MEMBER_0_MEMBER_1_FILL"/>
</g>

<g transform="matrix( 1, 0, 0, 1, -75.45,0.4) ">
<use xlink:href="#Layer0_0_MEMBER_1_MEMBER_0_MEMBER_0_FILL"/>
</g>

<g transform="matrix( 1, 0, 0, 1, -75.45,0.4) ">
<use xlink:href="#Layer0_0_MEMBER_2_MEMBER_0_MEMBER_0_FILL"/>
</g>

<g transform="matrix( 1, 0, 0, 1, -75.45,0.4) ">
<use xlink:href="#Layer0_0_MEMBER_2_MEMBER_0_MEMBER_1_FILL"/>
</g>

<g transform="matrix( 1, 0, 0, 1, -75.45,0.4) ">
<use xlink:href="#Layer0_0_MEMBER_3_MEMBER_0_MEMBER_0_FILL"/>
</g>

<g transform="matrix( 1, 0, 0, 1, -75.45,0.4) ">
<use xlink:href="#Layer0_0_MEMBER_4_MEMBER_0_MEMBER_0_FILL"/>
</g>

<g transform="matrix( 1, 0, 0, 1, -75.45,0.4) ">
<use xlink:href="#Layer0_0_MEMBER_4_MEMBER_0_MEMBER_1_FILL"/>
</g>
</svg>
