
<svg xmlns="http://www.w3.org/2000/svg" version="1.1" xmlns:xlink="http://www.w3.org/1999/xlink" preserveAspectRatio="none" x="0px" y="0px" width="118px" height="132px" viewBox="0 0 118 132">
<defs>
<g id="Layer2_0_MEMBER_0_MEMBER_0_MEMBER_0_FILL">
<path fill="#2E435B" stroke="none" d="
M 189.3 457.75
Q 171.05 458.75 163.6 471.2 156.15 483.6 163.8 500.15 171.45 516.7 189.7 527.7 208 538.7 226.2 537.65 244.45 536.65 251.9 524.2 259.35 511.8 251.7 495.25 244.05 478.7 225.8 467.7 207.5 456.7 189.3 457.75 Z"/>
</g>

<g id="Layer2_0_MEMBER_0_MEMBER_1_FILL">
<path fill="#2E435B" stroke="none" d="
M 189.3 457.75
Q 171.05 458.75 163.6 471.2 156.15 483.6 163.8 500.15 171.45 516.7 189.7 527.7 208 538.7 226.2 537.65 244.45 536.65 251.9 524.2 259.35 511.8 251.7 495.25 244.05 478.7 225.8 467.7 207.5 456.7 189.3 457.75 Z"/>
</g>

<g id="Layer2_0_MEMBER_1_MEMBER_0_MEMBER_0_MEMBER_0_FILL">
<path fill="#FF9900" stroke="none" d="
M 190.35 527.35
L 190.4 527.35 191.6 519.5
Q 192.95 509.3 193.95 498.9
L 193.8 499.8
Q 190.85 509.35 190.25 519.2
L 190.2 519.55
Q 190.05 523.6 190.4 527.3
L 190.35 527.35 Z"/>
</g>

<g id="Layer2_0_MEMBER_1_MEMBER_0_MEMBER_0_MEMBER_1_FILL">
<path fill="#EEAB0F" stroke="none" d="
M 179.15 524
L 179.15 524.35
Q 179.15 527.15 182.25 529.45 185.65 532 189.8 532.45 193.75 533.15 197.3 531.55 200.45 530 200.45 527.25 200.45 524.5 197.3 522.1 194.95 520.35 192.05 519.6
L 191.95 520
Q 194 520.55 196.05 521.95 198.95 524.1 198.95 526.45 198.95 528.8 196.05 530.15 192.7 531.55 189.05 530.95 185.2 530.55 182.05 528.35 179.216796875 526.39609375 179.15 524
M 189.05 519.35
L 189.85 519.5 189.85 519.15 189.8 519.15
Q 185.85 518.45 182.25 520.05
L 182.05 520.15
Q 185.5 518.75 189.05 519.35 Z"/>
</g>

<g id="Layer2_0_MEMBER_1_MEMBER_1_MEMBER_0_MEMBER_0_FILL">
<path fill="#FF9900" stroke="none" d="
M 194.35 466.35
L 194.9 465.45
Q 195.6 464.25 196.45 463.35
L 196 463.25
Q 194.9 464.3 194.05 465.5
L 193.4 466.55
Q 190.1 472.55 189.2 479.2 187.9 485.85 189.1 492.4 190.3 498.2 193.2 498.65
L 193.85 498.75
Q 196.75 499.3 199.8 494.2 203 488.4 204 481.65 205.25 475.15 204.1 468.3
L 203.8 467.15
Q 203.4 465.6 202.7 464.35
L 202.25 464.3
Q 202.7 465.35 203.05 466.8
L 203.25 467.85
Q 204.1 474.2 202.9 480.3 202.1 486.4 199.25 492.05 196.7 496.85 194.3 496.45
L 193.95 496.35 193.55 496.3
Q 191.2 495.95 190.3 490.6 189.45 484.4 190.6 478.3 191.5 471.95 194.35 466.35 Z"/>
</g>

<g id="Layer2_0_MEMBER_1_MEMBER_2_MEMBER_0_MEMBER_0_FILL">
<path fill="#EEAB0F" stroke="none" d="
M 203.25 518.5
Q 203.25 519 203.4 519.45 204.05 522.05 207.7 523.55 211.7 525.1 215.8 524.5 219.7 524.1 222.85 521.65 225.45 519.45 224.75 516.75 224 514.1 220.4 512.6 217.4 511.4 214.2 511.55
L 212.45 511.65 212.45 511.8 213.4 511.75
Q 216.25 511.55 219.1 512.6 222.45 513.8 223.05 516.15 223.65 518.5 221.2 520.5 218.2 522.7 214.65 523 210.85 523.6 207.25 522.3 203.9 521.1 203.3 518.8
L 203.25 518.5 Z"/>
</g>

<g id="Layer2_0_MEMBER_1_MEMBER_2_MEMBER_0_MEMBER_1_FILL">
<path fill="#FF9900" stroke="none" d="
M 208.45 489.45
L 208.3 488.6
Q 209.55 501.85 211.05 511.9
L 211.05 511.95 211.85 517 211.9 517 211.85 516.95
Q 212.1 514.1 212.1 511.85
L 212.1 511.7
Q 211.8 500.15 208.45 489.45 Z"/>
</g>

<g id="Layer2_0_MEMBER_1_MEMBER_3_MEMBER_0_MEMBER_0_FILL">
<path fill="#FF9900" stroke="none" d="
M 199 456.6
Q 199.2 455.5 199.8 454.1
L 199.35 454.2
Q 198.75 455.25 198.2 456.95
L 197.9 458.1
Q 196.75 464.8 198.05 471.45 199.05 478.2 202.25 484 205.25 489.05 208.15 488.6
L 208.5 488.5 208.85 488.45
Q 211.75 488 212.95 482.25 214.15 475.7 212.85 469 211.95 462.45 208.65 456.35 208.6 456.25 208 455.35 207.2 454.15 206.05 453.05
L 205.6 453.15
Q 206.45 454.05 207.15 455.25
L 207.7 456.15
Q 210.5 461.8 211.4 468.1 212.6 474.15 211.75 480.4 210.85 485.75 208.45 486.1
L 208.1 486.2 207.75 486.25
Q 205.35 486.65 202.8 481.9 200 476.3 199.1 470.15 197.95 463.8 198.75 457.65
L 199 456.6 Z"/>
</g>

<path id="Layer2_0_MEMBER_0_MEMBER_0_MEMBER_1_1_STROKES" stroke="#707070" stroke-width="1" stroke-linejoin="miter" stroke-linecap="butt" stroke-miterlimit="4" fill="none" d="
M 225.5 468.15
Q 243.6 479.05 251.25 495.4 258.85 511.75 251.45 523.95 244.1 536.2 226.1 537.2 208.1 538.15 190 527.25 171.9 516.35 164.3 500.05 156.65 483.65 164.05 471.45 171.4 459.2 189.4 458.2 207.45 457.25 225.5 468.15 Z"/>
</defs>

<g transform="matrix( 1, 0, 0, 1, -148.75,-429.4) ">
<use xlink:href="#Layer2_0_MEMBER_0_MEMBER_0_MEMBER_0_FILL"/>
</g>

<g transform="matrix( 1, 0, 0, 1, -148.75,-429.4) ">
<use xlink:href="#Layer2_0_MEMBER_0_MEMBER_0_MEMBER_1_1_STROKES"/>
</g>

<g transform="matrix( 1, 0, 0, 1, -148.75,-429.4) ">
<use xlink:href="#Layer2_0_MEMBER_0_MEMBER_1_FILL"/>
</g>

<g transform="matrix( 1, 0, 0, 1, -148.75,-429.4) ">
<use xlink:href="#Layer2_0_MEMBER_1_MEMBER_0_MEMBER_0_MEMBER_0_FILL"/>
</g>

<g transform="matrix( 1, 0, 0, 1, -148.75,-429.4) ">
<use xlink:href="#Layer2_0_MEMBER_1_MEMBER_0_MEMBER_0_MEMBER_1_FILL"/>
</g>

<g transform="matrix( 1, 0, 0, 1, -148.75,-429.4) ">
<use xlink:href="#Layer2_0_MEMBER_1_MEMBER_1_MEMBER_0_MEMBER_0_FILL"/>
</g>

<g transform="matrix( 1, 0, 0, 1, -148.75,-429.4) ">
<use xlink:href="#Layer2_0_MEMBER_1_MEMBER_2_MEMBER_0_MEMBER_0_FILL"/>
</g>

<g transform="matrix( 1, 0, 0, 1, -148.75,-429.4) ">
<use xlink:href="#Layer2_0_MEMBER_1_MEMBER_2_MEMBER_0_MEMBER_1_FILL"/>
</g>

<g transform="matrix( 1, 0, 0, 1, -148.75,-429.4) ">
<use xlink:href="#Layer2_0_MEMBER_1_MEMBER_3_MEMBER_0_MEMBER_0_FILL"/>
</g>
</svg>
