
<svg xmlns="http://www.w3.org/2000/svg" version="1.1" xmlns:xlink="http://www.w3.org/1999/xlink" preserveAspectRatio="none" x="0px" y="0px" width="118px" height="132px" viewBox="0 0 118 132">
<defs>
<g id="Layer5_0_MEMBER_0_MEMBER_0_MEMBER_0_FILL">
<path fill="#2E435B" stroke="none" d="
M 251.9 259.2
Q 259.35 246.8 251.7 230.25 244.05 213.7 225.8 202.7 207.5 191.7 189.3 192.75 171.05 193.75 163.6 206.2 156.15 218.6 163.8 235.15 171.45 251.7 189.7 262.7 208 273.7 226.2 272.65 244.45 271.65 251.9 259.2 Z"/>
</g>

<g id="Layer5_0_MEMBER_0_MEMBER_1_FILL">
<path fill="#2E435B" stroke="none" d="
M 251.9 259.2
Q 259.35 246.8 251.7 230.25 244.05 213.7 225.8 202.7 207.5 191.7 189.3 192.75 171.05 193.75 163.6 206.2 156.15 218.6 163.8 235.15 171.45 251.7 189.7 262.7 208 273.7 226.2 272.65 244.45 271.65 251.9 259.2 Z"/>
</g>

<g id="Layer5_0_MEMBER_1_MEMBER_0_MEMBER_0_MEMBER_0_FILL">
<path fill="#EEAB0F" stroke="none" d="
M 243.05 245.85
Q 247.75 239.95 244.15 231.95 240.55 224 230.7 218.65
L 230.75 218.65 229.95 218.25
Q 229.05 217.75 227.25 216.95 219.25 213.4 210.7 213.8 200.45 214.2 195.75 220.15 191.05 226.05 194.65 234.05 198.3 241.95 208.1 247.35 217.3 252.55 228.15 252.25 238.4 251.8 243.05 245.85
M 209.3 215.05
Q 218.85 215 227.25 219.45
L 229.95 220.95
Q 237.7 225.55 241 232.1 244.7 239.3 240.55 244.55 236.45 249.75 226.9 249.95 216.8 250.05 208.15 245.1 198.85 240.15 195.2 232.9 191.6 225.7 195.7 220.45 199.85 215.3 209.3 215.05 Z"/>
</g>

<g id="Layer5_0_MEMBER_1_MEMBER_1_MEMBER_0_MEMBER_0_MEMBER_0_FILL">
<path fill="#FF9900" stroke="none" d="
M 215.65 226.95
Q 219.65 219.15 215.2 213 210.75 206.9 200.55 206 192 205.3 183.9 208.45 182.55 208.95 181.15 209.65
L 180.3 210
Q 170.3 214.95 166.35 222.7 162.4 230.5 166.8 236.65 171.25 242.85 181.45 243.65 192.1 244.5 201.7 239.65 211.75 234.75 215.65 226.95
M 215.25 213.35
Q 219.1 218.7 215.2 225.8 211.15 232.95 201.75 237.4 192.95 241.9 182.8 241.45 173.3 240.85 169.4 235.45 165.5 230.05 169.5 223 173.05 216.65 181.05 212.35
L 183.8 210.95
Q 192.25 206.9 201.9 207.35 211.35 207.95 215.25 213.35 Z"/>
</g>

<path id="Layer5_0_MEMBER_0_MEMBER_0_MEMBER_1_1_STROKES" stroke="#707070" stroke-width="1" stroke-linejoin="miter" stroke-linecap="butt" stroke-miterlimit="4" fill="none" d="
M 225.5 203.15
Q 243.6 214.05 251.25 230.4 258.85 246.75 251.45 258.95 244.1 271.2 226.1 272.2 208.1 273.15 190 262.25 171.9 251.35 164.3 235.05 156.65 218.65 164.05 206.45 171.4 194.2 189.4 193.2 207.45 192.25 225.5 203.15 Z"/>
</defs>

<g transform="matrix( 1, 0, 0, 1, -148.75,-166.7) ">
<use xlink:href="#Layer5_0_MEMBER_0_MEMBER_0_MEMBER_0_FILL"/>
</g>

<g transform="matrix( 1, 0, 0, 1, -148.75,-166.7) ">
<use xlink:href="#Layer5_0_MEMBER_0_MEMBER_0_MEMBER_1_1_STROKES"/>
</g>

<g transform="matrix( 1, 0, 0, 1, -148.75,-166.7) ">
<use xlink:href="#Layer5_0_MEMBER_0_MEMBER_1_FILL"/>
</g>

<g transform="matrix( 1, 0, 0, 1, -148.75,-166.7) ">
<use xlink:href="#Layer5_0_MEMBER_1_MEMBER_0_MEMBER_0_MEMBER_0_FILL"/>
</g>

<g transform="matrix( 1, 0, 0, 1, -148.75,-166.7) ">
<use xlink:href="#Layer5_0_MEMBER_1_MEMBER_1_MEMBER_0_MEMBER_0_MEMBER_0_FILL"/>
</g>
</svg>
